
        <svg xmlns="http://www.w3.org/2000/svg" xmlns:xlink="http://www.w3.org/1999/xlink" version="1.1" width="3162.3603351955308" 
        height="1037.9984319485065" viewBox="0 0 3162.3603351955308 1037.9984319485065">
			
			<g transform="scale(8.118016759776536) translate(10, 10)">
				<defs id="SvgjsDefs1764"><linearGradient id="SvgjsLinearGradient1769"><stop id="SvgjsStop1770" stop-color="#2d388a" offset="0"></stop><stop id="SvgjsStop1771" stop-color="#00aeef" offset="1"></stop></linearGradient></defs><g id="SvgjsG1765" featureKey="e7LhAk-0" transform="matrix(1.2588675754687753,0,0,1.2588675754687753,-34.223145147185576,-9.56991160644995)" fill="#004aac"><g xmlns="http://www.w3.org/2000/svg"><g><path d="M50.467,8.649l-0.566-0.69c-0.016-0.022-0.031-0.044-0.052-0.062l-0.242-0.295l-0.241,0.294    c-0.022,0.02-0.038,0.043-0.055,0.067l-0.563,0.687C30.64,30.283,24.062,47.821,28.544,62.312    c3.623,11.626,16.015,13.726,19.92,14.009v15.821c0,0.666,0.478,1.143,1.143,1.143c0.666,0,1.141-0.477,1.141-1.143V76.32    c3.908-0.382,16.298-2.383,19.922-14.009C75.153,47.821,68.575,30.288,50.467,8.649z M49.607,37.127    c0.858,0,1.555,0.697,1.555,1.555c0,0.856-0.697,1.554-1.555,1.554c-0.857,0-1.555-0.697-1.555-1.554    C48.052,37.824,48.75,37.127,49.607,37.127z M49.607,60.908c0.924,0,1.674,0.751,1.674,1.675c0,0.797-0.56,1.463-1.308,1.631    c-0.118,0.026-0.24,0.043-0.366,0.043c-0.126,0-0.249-0.017-0.367-0.043c-0.747-0.168-1.308-0.834-1.308-1.631    C47.933,61.659,48.684,60.908,49.607,60.908z M69.163,58.463h-3.726l-4.384-4.385c-0.068-0.068-0.164-0.107-0.261-0.107h-1.286    c-0.174-0.944-0.999-1.665-1.994-1.665c-1.119,0-2.031,0.912-2.031,2.031c0,1.12,0.912,2.032,2.031,2.032    c0.994,0,1.82-0.72,1.994-1.665h1.135l4.385,4.385c0.068,0.068,0.163,0.107,0.26,0.107h3.735c-0.177,0.826-0.389,1.642-0.64,2.445    c-3.103,10.15-13.698,12.049-17.47,12.377c-0.051,0.005-0.102,0.008-0.153,0.013l-0.011,0.002    c-0.256,0.022-0.515,0.031-0.775,0.036v-2.977l3.402-3.403h2.028c0.174,0.945,1.001,1.665,1.994,1.665    c1.122,0,2.031-0.911,2.031-2.032c0-1.12-0.909-2.031-2.031-2.031c-0.994,0-1.82,0.72-1.994,1.665h-2.18    c-0.097,0-0.19,0.038-0.26,0.107l-2.991,2.991v-5.322c1.031-0.176,1.821-1.068,1.821-2.149c0-1.206-0.982-2.188-2.188-2.188    c-1.206,0-2.187,0.982-2.187,2.188c0,1.08,0.789,1.974,1.82,2.149v6.208v0.503l-3.398-4.249v-2.788    c0-0.022-0.009-0.044-0.014-0.066c0.65-0.857,0.593-2.081-0.188-2.862c0.094,0.093,0.187,0.187,0.227,0.226    c-0.025-0.024-0.087-0.087-0.227-0.227c-0.154-0.153-0.222-0.223-0.24-0.239c0.027,0.026,0.133,0.133,0.239,0.238    c-0.853-0.852-2.24-0.852-3.092,0.001c-0.853,0.854-0.853,2.241,0,3.095c0.693,0.693,1.736,0.812,2.562,0.379v2.372    c0,0.083,0.028,0.164,0.081,0.229l4.052,5.066v1.433c-0.56-0.027-1.114-0.086-1.651-0.197    c-4.259-0.505-13.816-2.749-16.736-12.301c-0.107-0.339-0.203-0.681-0.296-1.022l2.67-2.67h6.747c0.097,0,0.191-0.04,0.259-0.107    l0.616-0.615c0.79,0.545,1.883,0.47,2.586-0.233c0.792-0.792,0.792-2.081,0-2.873s-2.081-0.792-2.872,0    c-0.704,0.703-0.779,1.796-0.233,2.587l-0.508,0.508h-6.747c-0.097,0-0.191,0.04-0.259,0.107l-2.468,2.469    c-1.584-6.604-0.751-13.953,2.565-22.147c0.026,0.006,0.05,0.016,0.078,0.016h2.282l5.057,5.057    c-0.546,0.791-0.47,1.884,0.233,2.587c0.791,0.791,2.08,0.791,2.872,0c0.792-0.792,0.792-2.082,0-2.873    c-0.703-0.703-1.797-0.778-2.587-0.233l-5.164-5.165c-0.068-0.068-0.163-0.107-0.259-0.107h-2.21    c3.204-7.634,8.532-15.995,16.026-25.16v3.643l-4.025,4.025c-0.068,0.068-0.107,0.163-0.107,0.259V31.6    c-0.945,0.174-1.665,1-1.665,1.994c0,1.12,0.912,2.032,2.031,2.032c1.121,0,2.031-0.912,2.031-2.032    c0-0.994-0.718-1.82-1.664-1.994V19.757l3.398-3.399v5.159v15.17c-0.945,0.173-1.665,1-1.665,1.995    c0,1.12,0.912,2.031,2.032,2.031s2.031-0.912,2.031-2.031c0-0.995-0.72-1.821-1.665-1.995V22.402l3.335,3.335v7.578    c-0.945,0.174-1.664,1-1.664,1.994c0,1.12,0.911,2.031,2.031,2.031s2.031-0.912,2.031-2.031c0-0.995-0.72-1.821-1.665-1.994    v-7.729c0-0.097-0.039-0.19-0.107-0.259l-3.961-3.961v-5.891c0-0.001,0-0.002,0-0.003v-3.794    c5.302,6.483,9.519,12.563,12.668,18.272c-0.029,0.017-0.065,0.013-0.091,0.038l-2.015,2.015    c-0.067,0.068-0.106,0.163-0.106,0.259v8.3l-2.038,2.037c-0.79-0.546-1.883-0.471-2.586,0.231    c0.197-0.198,0.393-0.394-0.002,0.001c-0.001,0-0.001,0.001-0.002,0.002c-0.789,0.792-0.788,2.079,0.002,2.871    c0.792,0.792,2.081,0.792,2.873,0c0.703-0.704,0.778-1.796,0.233-2.587l2.145-2.145c0.068-0.069,0.107-0.163,0.107-0.259v-8.301    l1.828-1.827C68.661,41.08,70.686,50.308,69.163,58.463z M59.067,54.337c0,0.127-0.02,0.249-0.049,0.367    c-0.165,0.68-0.774,1.188-1.506,1.188c-0.857,0-1.555-0.697-1.555-1.555c0-0.856,0.697-1.555,1.555-1.555    c0.731,0,1.341,0.509,1.507,1.188C59.048,54.089,59.067,54.21,59.067,54.337z M55.844,67.322c0-0.127,0.02-0.248,0.049-0.366    c0.166-0.68,0.776-1.188,1.506-1.188c0.858,0,1.556,0.698,1.556,1.555c0,0.858-0.697,1.555-1.556,1.555    c-0.729,0-1.34-0.507-1.506-1.188C55.863,67.571,55.844,67.449,55.844,67.322z M42.91,64.208c-0.654-0.653-0.654-1.716,0-2.368    c0.653-0.652,1.714-0.652,2.367,0c0.563,0.563,0.638,1.431,0.229,2.078c-0.065,0.103-0.139,0.2-0.229,0.29    c-0.089,0.089-0.188,0.164-0.29,0.229C44.34,64.846,43.474,64.771,42.91,64.208z M40.9,54.369c0.605-0.606,1.592-0.606,2.198,0    c0.607,0.605,0.607,1.592,0,2.198c-0.516,0.517-1.307,0.589-1.905,0.226c-0.104-0.063-0.203-0.136-0.293-0.226    s-0.162-0.189-0.226-0.294C40.311,55.676,40.383,54.885,40.9,54.369z M41.193,42.454c0.598-0.364,1.389-0.292,1.905,0.225    c0.607,0.606,0.607,1.592,0,2.198c-0.605,0.607-1.592,0.607-2.198,0c-0.517-0.516-0.589-1.307-0.225-1.905    c0.063-0.104,0.135-0.204,0.225-0.293C40.99,42.589,41.089,42.517,41.193,42.454z M45.475,32.04c0.858,0,1.555,0.698,1.555,1.555    c0,0.858-0.697,1.555-1.555,1.555c-0.856,0-1.553-0.697-1.553-1.555C43.921,32.737,44.618,32.04,45.475,32.04z M53.676,33.754    c0.857,0,1.555,0.697,1.555,1.555c0,0.857-0.697,1.555-1.555,1.555c-0.856,0-1.555-0.698-1.555-1.555    C52.121,34.451,52.819,33.754,53.676,33.754z M58.34,45.367c-0.606,0.606-1.592,0.606-2.198,0c-0.606-0.606-0.606-1.593,0-2.199    c0.517-0.517,1.308-0.589,1.905-0.225c0.104,0.063,0.203,0.136,0.293,0.225c0.09,0.09,0.162,0.189,0.226,0.293    C58.93,44.06,58.857,44.851,58.34,45.367z"></path><path d="M43.435,42.342C44.227,43.133,42.643,41.55,43.435,42.342L43.435,42.342z"></path><path d="M40.563,54.031C41.354,53.239,39.771,54.823,40.563,54.031L40.563,54.031z"></path></g><path d="M66.147,49.979c-0.623,0-1.119,0.453-1.237,1.042H52.714v-0.497h-1.327v-0.961h1.327v-0.249h3.9   c0.064,0,0.128-0.025,0.174-0.071l3.617-3.617h3.829c0.117,0.589,0.613,1.042,1.238,1.042c0.71,0,1.286-0.576,1.286-1.287   c0-0.712-0.576-1.288-1.286-1.288c-0.625,0-1.121,0.453-1.238,1.042h-3.932c-0.064,0-0.127,0.026-0.172,0.072l-3.617,3.617h-3.8   v-0.544h-1.327V47.32h1.327v-1.28h-1.327V45.08h1.327v-0.401c0.062,0,0.125-0.024,0.172-0.071l3.856-3.855   c0.046-0.045,0.071-0.108,0.071-0.172V30.356l0.732-0.732c0.501,0.333,1.173,0.304,1.613-0.138c0.503-0.503,0.503-1.318,0-1.821   c-0.502-0.503-1.317-0.503-1.82,0c-0.441,0.441-0.472,1.112-0.139,1.612l-0.805,0.805c-0.046,0.046-0.071,0.109-0.071,0.173v10.222   l-3.61,3.611v-0.29h-1.327v-0.81h-3.559v0.81H46.5v0.29l-3.918-3.919v-7.466c0-0.064-0.027-0.127-0.073-0.172l-1.582-1.582   c0.335-0.5,0.305-1.171-0.138-1.613c-0.502-0.502-1.317-0.502-1.819,0c-0.503,0.503-0.503,1.318-0.001,1.821   c0.442,0.442,1.114,0.472,1.614,0.138l1.509,1.511v7.465c0,0.064,0.027,0.128,0.073,0.173l4.164,4.164   c0.047,0.047,0.11,0.071,0.172,0.071v0.401h1.328v0.961H46.5v1.28h1.328v0.961H46.5v0.324h-3.624l-5.869-5.87   c-0.045-0.045-0.109-0.072-0.173-0.072H35.61c-0.118-0.589-0.615-1.042-1.238-1.042c-0.711,0-1.288,0.577-1.288,1.287   c0,0.711,0.576,1.288,1.288,1.288c0.624,0,1.12-0.453,1.238-1.042h1.124l5.869,5.869c0.046,0.045,0.109,0.072,0.173,0.072H46.5   v0.469h1.328v0.961H46.5v0.497H34.313c-0.118-0.589-0.614-1.042-1.238-1.042c-0.71,0-1.288,0.577-1.288,1.287   c0,0.711,0.577,1.287,1.288,1.287c0.625,0,1.12-0.453,1.238-1.042H46.5v0.294h1.328v0.961H46.5v1.28h1.328v0.961H46.5v0.253   c-0.062,0-0.125,0.023-0.172,0.07l-5.776,5.775h-3.781c-0.118-0.589-0.615-1.042-1.238-1.042c-0.712,0-1.288,0.576-1.288,1.287   s0.576,1.287,1.288,1.287c0.624,0,1.121-0.453,1.238-1.043h3.882c0.063,0,0.126-0.025,0.172-0.071l5.674-5.675v0.439h1.328v1.608   h3.559v-1.608h1.327v-0.439l3.076,3.077h4.97l1.443,1.442c-0.334,0.501-0.304,1.172,0.138,1.613c0.503,0.503,1.317,0.503,1.821,0   c0.502-0.503,0.502-1.317,0-1.821c-0.442-0.44-1.113-0.471-1.614-0.138l-1.586-1.586h-4.969l-3.107-3.106   c-0.047-0.047-0.109-0.071-0.172-0.071v-0.252h-1.327v-0.961h1.327v-1.28h-1.327v-0.961h1.327v-0.294H64.91   c0.118,0.589,0.614,1.042,1.237,1.042c0.711,0,1.288-0.576,1.288-1.287C67.436,50.555,66.858,49.979,66.147,49.979z"></path></g></g><g id="SvgjsG1766" featureKey="Qg0WB5-0" transform="matrix(1.9166127534807937,0,0,1.9166127534807937,73.27840974383132,32.68762130466821)" fill="url(#SvgjsLinearGradient1769)"><path d="M1.42 5.609999999999999 q0 -0.21 0.11 -0.335 t0.33 -0.125 l6.39 0 q0.69 0 1.3 0.19 t1.12 0.525 t0.92 0.8 t0.695 1.005 t0.435 1.135 t0.15 1.205 q0 0.9 -0.325 1.76 t-0.925 1.53 t-1.44 1.085 t-1.86 0.425 l-3.03 0 l0 4.76 q0 0.43 -0.46 0.43 l-2.97 0 q-0.2 0 -0.32 -0.105 t-0.12 -0.325 l0 -13.96 z M8.95 9.99 q0 -0.3 -0.105 -0.6 t-0.305 -0.535 t-0.485 -0.385 t-0.645 -0.15 l-2.12 0 l0 3.34 l2.12 0 q0.36 0 0.65 -0.145 t0.485 -0.375 t0.3 -0.53 t0.105 -0.62 z M24.95 18.48 q-0.88 0.81 -1.98 1.265 t-2.33 0.455 q-1.37 0 -2.59 -0.5 t-2.14 -1.385 t-1.46 -2.085 t-0.54 -2.61 q0 -0.88 0.215 -1.705 t0.61 -1.545 t0.96 -1.325 t1.265 -1.035 t1.52 -0.67 t1.73 -0.24 q0.83 0 1.61 0.22 t1.465 0.62 t1.255 0.96 t0.98 1.225 t0.635 1.42 t0.225 1.555 q0 0.52 -0.015 0.85 t-0.155 0.525 t-0.465 0.27 t-0.955 0.075 l-7.2 0 q0.1 0.64 0.405 1.07 t0.705 0.685 t0.85 0.365 t0.85 0.11 q0.36 0 0.74 -0.075 t0.735 -0.2 t0.65 -0.29 t0.475 -0.345 q0.16 -0.13 0.275 -0.195 t0.245 -0.065 t0.265 0.09 t0.305 0.26 l1.06 1.2 q0.11 0.13 0.14 0.235 t0.03 0.215 q0 0.2 -0.11 0.345 t-0.26 0.255 z M20.14 10.15 q-0.39 0 -0.755 0.155 t-0.685 0.415 t-0.575 0.59 t-0.415 0.67 l5.11 0 q-0.21 -0.39 -0.455 -0.72 t-0.56 -0.58 t-0.72 -0.39 t-0.945 -0.14 z M41.54 19.26 q0 0.17 -0.06 0.325 t-0.2 0.245 q-0.11 0.11 -0.26 0.14 t-0.26 0.03 l-1.97 0 q-0.21 0 -0.34 -0.055 t-0.21 -0.155 t-0.135 -0.245 t-0.115 -0.315 l-0.29 -0.75 q-0.27 0.27 -0.59 0.575 t-0.705 0.565 t-0.835 0.435 t-0.96 0.175 q-0.91 0 -1.745 -0.23 t-1.56 -0.655 t-1.315 -1.02 t-1.015 -1.325 t-0.655 -1.575 t-0.23 -1.765 q0 -1.39 0.51 -2.585 t1.39 -2.08 t2.07 -1.39 t2.55 -0.505 q0.62 0 1.14 0.185 t0.945 0.485 t0.77 0.68 t0.615 0.77 l0.39 -1.21 q0.1 -0.25 0.165 -0.405 t0.14 -0.23 t0.185 -0.1 t0.31 -0.025 l1.49 0 q0.11 0 0.26 0.03 t0.26 0.14 q0.14 0.11 0.2 0.25 t0.06 0.32 l0 11.27 z M31.689999999999998 13.66 q0 0.66 0.205 1.235 t0.585 0.995 t0.915 0.665 t1.185 0.245 q0.67 0 1.245 -0.245 t1 -0.665 t0.665 -0.995 t0.24 -1.235 q0 -0.64 -0.24 -1.22 t-0.665 -1.02 t-1 -0.695 t-1.245 -0.255 q-0.65 0 -1.185 0.255 t-0.915 0.695 t-0.585 1.02 t-0.205 1.22 z M43.940000000000005 4.289999999999999 q0 -0.17 0.01 -0.31 t0.085 -0.24 t0.235 -0.155 t0.45 -0.055 l2.39 0 q0.19 0 0.315 0.065 t0.2 0.165 t0.1 0.215 t0.025 0.215 l0 7.4 l3.6 -4 q0.26 -0.29 0.62 -0.29 l3.07 0 q0.55 0 0.55 0.43 q0 0.11 -0.035 0.18 t-0.145 0.2 l-4.11 4.34 l5.17 6.64 l-0.02 0 q0.13 0.13 0.185 0.265 t0.055 0.245 q0 0.23 -0.125 0.315 t-0.375 0.085 l-3.38 0 q-0.17 0 -0.32 -0.13 t-0.33 -0.39 l-3.27 -4.63 l-1.11 1.15 l0 3.23 q0 0.08 -0.025 0.21 t-0.1 0.255 t-0.205 0.215 t-0.34 0.09 l-2.51 0 q-0.18 0 -0.31 -0.095 t-0.205 -0.215 t-0.11 -0.225 t-0.035 -0.125 l0 -15.05 z M58.290000000000006 5.609999999999999 q0 -0.21 0.11 -0.335 t0.33 -0.125 l6.39 0 q0.69 0 1.3 0.19 t1.12 0.525 t0.92 0.8 t0.695 1.005 t0.435 1.135 t0.15 1.205 q0 0.9 -0.325 1.76 t-0.925 1.53 t-1.44 1.085 t-1.86 0.425 l-3.03 0 l0 4.76 q0 0.43 -0.46 0.43 l-2.97 0 q-0.2 0 -0.32 -0.105 t-0.12 -0.325 l0 -13.96 z M65.82000000000001 9.99 q0 -0.3 -0.105 -0.6 t-0.305 -0.535 t-0.485 -0.385 t-0.645 -0.15 l-2.12 0 l0 3.34 l2.12 0 q0.36 0 0.65 -0.145 t0.485 -0.375 t0.3 -0.53 t0.105 -0.62 z M70.79000000000002 13.66 q0 -0.92 0.235 -1.77 t0.66 -1.575 t1.02 -1.32 t1.325 -1.015 t1.575 -0.65 t1.765 -0.23 q1.36 0 2.555 0.505 t2.08 1.39 t1.4 2.08 t0.515 2.585 q0 0.92 -0.235 1.765 t-0.66 1.575 t-1.02 1.325 t-1.325 1.02 t-1.565 0.655 t-1.745 0.23 q-0.92 0 -1.765 -0.23 t-1.575 -0.655 t-1.325 -1.02 t-1.02 -1.325 t-0.66 -1.575 t-0.235 -1.765 z M74.44000000000001 13.66 q0 0.66 0.205 1.235 t0.58 0.995 t0.91 0.665 t1.205 0.245 q0.65 0 1.175 -0.245 t0.89 -0.665 t0.56 -0.995 t0.195 -1.235 q0 -0.64 -0.195 -1.22 t-0.56 -1.02 t-0.89 -0.695 t-1.175 -0.255 q-0.67 0 -1.205 0.255 t-0.91 0.695 t-0.58 1.02 t-0.205 1.22 z M85.91000000000003 8.04 q0 -0.17 0.075 -0.325 t0.185 -0.245 q0.26 -0.17 0.54 -0.17 l1.51 0 q0.19 0 0.3 0.07 t0.185 0.18 t0.13 0.25 t0.135 0.28 q0.02 0.04 0.08 0.195 t0.13 0.34 t0.135 0.35 t0.085 0.215 q0.3 -0.33 0.575 -0.695 t0.585 -0.675 t0.69 -0.51 t0.9 -0.2 q0.54 0 0.965 0.08 t0.805 0.235 t0.755 0.395 t0.815 0.56 q0.69 0.37 0.26 1.1 l-0.91 1.55 q-0.2 0.3 -0.49 0.37 t-0.63 -0.09 q-0.43 -0.42 -0.875 -0.625 t-1.015 -0.205 q-0.39 0 -0.685 0.11 t-0.535 0.31 t-0.45 0.48 t-0.42 0.62 l0 7.24 q0 0.38 -0.185 0.575 t-0.615 0.195 l-2.25 0 q-0.78 0 -0.78 -0.77 l0 -11.19 z M98.19000000000003 5.32 q0 -0.31 0.205 -0.465 t0.585 -0.295 l2.27 -0.79 q0.05 -0.01 0.095 -0.01 l0.085 0 q0.37 0 0.495 0.215 t0.125 0.565 l-0.01 3.15 l1.67 0 q0.32 0 0.52 0.19 t0.2 0.57 l0 1.93 q0 0.42 -0.2 0.615 t-0.52 0.195 l-1.67 0 l0.01 8.04 q0 0.38 -0.22 0.575 t-0.61 0.195 l-2.26 0 q-0.77 0 -0.77 -0.77 l-0.01 -8.04 l-0.73 0 q-0.77 0 -0.77 -0.81 l0 -1.93 q0 -0.76 0.77 -0.76 l0.73 0 z M107.22000000000003 7.48 q0 -0.93 0.4 -1.75 t1.07 -1.435 t1.54 -0.97 t1.82 -0.355 l0.2 0 q0.34 0 0.525 0.205 t0.185 0.565 l0 1.91 q0 0.37 -0.195 0.615 t-0.515 0.245 l-0.2 0 q-0.21 0 -0.4 0.075 t-0.34 0.205 t-0.24 0.305 t-0.09 0.385 l0 1.15 l1.57 0 q0.34 0 0.525 0.185 t0.185 0.585 l0 1.83 q0 0.43 -0.185 0.63 t-0.525 0.2 l-1.57 0 l0 7.17 q0 0.38 -0.255 0.575 t-0.555 0.195 l-2.16 0 q-0.36 0 -0.575 -0.225 t-0.215 -0.545 l0 -7.17 l-1.03 0 q-0.35 0 -0.565 -0.2 t-0.215 -0.63 l0 -1.83 q0 -0.4 0.215 -0.585 t0.565 -0.185 l1.03 0 l0 -1.15 z M114.29000000000003 13.66 q0 -0.92 0.235 -1.77 t0.66 -1.575 t1.02 -1.32 t1.325 -1.015 t1.575 -0.65 t1.765 -0.23 q1.36 0 2.555 0.505 t2.08 1.39 t1.4 2.08 t0.515 2.585 q0 0.92 -0.235 1.765 t-0.66 1.575 t-1.02 1.325 t-1.325 1.02 t-1.565 0.655 t-1.745 0.23 q-0.92 0 -1.765 -0.23 t-1.575 -0.655 t-1.325 -1.02 t-1.02 -1.325 t-0.66 -1.575 t-0.235 -1.765 z M117.94000000000003 13.66 q0 0.66 0.205 1.235 t0.58 0.995 t0.91 0.665 t1.205 0.245 q0.65 0 1.175 -0.245 t0.89 -0.665 t0.56 -0.995 t0.195 -1.235 q0 -0.64 -0.195 -1.22 t-0.56 -1.02 t-0.89 -0.695 t-1.175 -0.255 q-0.67 0 -1.205 0.255 t-0.91 0.695 t-0.58 1.02 t-0.205 1.22 z M129.41000000000003 4.289999999999999 q0 -0.32 0.16 -0.54 t0.55 -0.22 l2.45 0 q0.1 0 0.21 0.055 t0.205 0.155 t0.16 0.24 t0.065 0.31 l0 14.94 q0 0.38 -0.215 0.575 t-0.555 0.195 l-2.32 0 q-0.39 0 -0.55 -0.195 t-0.16 -0.575 l0 -14.94 z M135.60000000000002 8.08 q0 -0.32 0.18 -0.55 t0.56 -0.23 l2.29 0 q0.12 0 0.26 0.055 t0.26 0.16 t0.205 0.245 t0.085 0.32 l0 11.15 q0 0.38 -0.21 0.575 t-0.6 0.195 l-2.29 0 q-0.74 0 -0.74 -0.77 l0 -11.15 z M135.60000000000002 3.0199999999999996 q0 -0.42 0.18 -0.595 t0.56 -0.175 l2.32 0 q0.35 0 0.565 0.175 t0.215 0.595 l0 1.95 q0 0.12 -0.055 0.26 t-0.155 0.27 t-0.245 0.215 t-0.325 0.085 l-2.32 0 q-0.74 0 -0.74 -0.83 l0 -1.95 z M141.45000000000002 13.66 q0 -0.92 0.235 -1.77 t0.66 -1.575 t1.02 -1.32 t1.325 -1.015 t1.575 -0.65 t1.765 -0.23 q1.36 0 2.555 0.505 t2.08 1.39 t1.4 2.08 t0.515 2.585 q0 0.92 -0.235 1.765 t-0.66 1.575 t-1.02 1.325 t-1.325 1.02 t-1.565 0.655 t-1.745 0.23 q-0.92 0 -1.765 -0.23 t-1.575 -0.655 t-1.325 -1.02 t-1.02 -1.325 t-0.66 -1.575 t-0.235 -1.765 z M145.10000000000002 13.66 q0 0.66 0.205 1.235 t0.58 0.995 t0.91 0.665 t1.205 0.245 q0.65 0 1.175 -0.245 t0.89 -0.665 t0.56 -0.995 t0.195 -1.235 q0 -0.64 -0.195 -1.22 t-0.56 -1.02 t-0.89 -0.695 t-1.175 -0.255 q-0.67 0 -1.205 0.255 t-0.91 0.695 t-0.58 1.02 t-0.205 1.22 z"></path></g>
			</g>
		</svg>
	